User Type,Username,Date,Text
,Pakosan,2012-12-25T13:47Z,thnx
,sushanthb,2012-12-25T18:49Z,the video does not play in my VLC. i think i have downloaded 4.37GB of Shit.
,Kooblukhan,2012-12-25T20:30Z,"More likely you have a mass of pink shit between your ears.  I would suggest waiting for it to finish downloading, or perhaps changing your parental controls."
,tpbuser8,2012-12-25T20:52Z,There is no English sub included!
,bamboofm,2012-12-29T13:11Z,@Kooblukhan: LOL !
,vivatpb5776,2012-12-30T14:03Z,"Just for clarification, the movie DOES play in VLC. Also, to confirm tpbuser8's comment, there are no subtitles included. Here is the mediainfo:

General
Format                           : Matroska
File size                        : 4.37 GiB
Duration                         : 1h 41mn
Overall bit rate                 : 6 143 Kbps
Writing application              : mkvmerge v4.1.1 ('Bouncin' Back') built on Jul  3 2010 22:54:08
Writing library                  : libebml v1.0.0 + libmatroska v1.0

Video
ID                               : 1
Format                           : AVC
Format/Info                      : Advanced Video Codec
Format profile                   : High@L4.1
Format settings, CABAC           : Yes
Format settings, ReFrames        : 5 frames
Format settings, GOP             : M=4, N=29
Codec ID                         : V_MPEG4/ISO/AVC
Duration                         : 1h 41mn
Bit rate                         : 4 638 Kbps
Width                            : 1 280 pixels
Height                           : 536 pixels
Display aspect ratio             : 2.35:1
Frame rate                       : 23.976 fps
Color space                      : YUV
Chroma subsampling               : 4:2:0
Bit depth                        : 8 bits
Scan type                        : Progressive
Bits/(Pixel*Frame)               : 0.282
Stream size                      : 3.21 GiB (73%)
Writing library                  : x264 core 129 r2230 1cffe9f
Encoding settings                : cabac=1 / ref=5 / deblock=1:0:0 / analyse=0x3:0x133 / me=umh / subme=7 / psy=1 / psy_rd=1.00:0.00 / mixed_ref=1 / me_range=16 / chroma_me=1 / trellis=1 / 8x8dct=1 / cqm=0 / deadzone=21,11 / fast_pskip=0 / chroma_qp_offset=-2 / threads=12 / lookahead_threads=2 / sliced_threads=0 / nr=0 / decimate=1 / interlaced=0 / bluray_compat=0 / constrained_intra=0 / bframes=3 / b_pyramid=2 / b_adapt=1 / b_bias=0 / direct=1 / weightb=1 / open_gop=0 / weightp=2 / keyint=250 / keyint_min=23 / scenecut=40 / intra_refresh=0 / rc_lookahead=40 / rc=2pass / mbtree=1 / bitrate=4638 / ratetol=1.0 / qcomp=0.60 / qpmin=0 / qpmax=69 / qpstep=4 / cplxblur=20.0 / qblur=0.5 / ip_ratio=1.40 / aq=1:1.00
Language                         : English

Audio
ID                               : 2
Format                           : DTS
Format/Info                      : Digital Theater Systems
Codec ID                         : A_DTS
Duration                         : 1h 41mn
Bit rate mode                    : Constant
Bit rate                         : 1 510 Kbps
Channel(s)                       : 6 channels
Channel positions                : Front: L C R, Side: L R, LFE
Sampling rate                    : 48.0 KHz
Bit depth                        : 24 bits
Compression mode                 : Lossy
Stream size                      : 1.07 GiB (25%)
Language                         : English

Menu
00:00:00.000                     : en:00:00:00.000
00:04:30.729                     : en:00:04:30.729
00:08:55.160                     : en:00:08:55.160
00:13:02.949                     : en:00:13:02.949
00:17:14.450                     : en:00:17:14.450
00:23:05.342                     : en:00:23:05.342
00:28:31.752                     : en:00:28:31.752
00:35:37.719                     : en:00:35:37.719
00:39:06.427                     : en:00:39:06.427
00:42:46.772                     : en:00:42:46.772
00:46:20.444                     : en:00:46:20.444
00:51:48.772                     : en:00:51:48.772
00:59:14.342                     : en:00:59:14.342
01:03:59.085                     : en:01:03:59.085
01:07:26.334                     : en:01:07:26.334
01:11:07.972                     : en:01:11:07.972
01:15:20.808                     : en:01:15:20.808
01:18:41.091                     : en:01:18:41.091
01:23:02.978                     : en:01:23:02.978
01:26:48.787                     : en:01:26:48.787
01:30:13.825                     : en:01:30:13.825
01:31:26.731                     : en:01:31:26.731
01:35:31.601                     : en:01:35:31.601

That being said, the audio and video qualities are e"
,vivatpb5776,2012-12-30T14:03Z,xcellent. Thank you uploader.
,maxgon2012,2012-12-31T19:34Z,please seed !!!
